<svg xmlns="http://www.w3.org/2000/svg" width="512" height="512">
  <path fill="#0070d1" d="M0 0h512v512H0Z"/>
  <path d="M56.905 276.624q27.566 1.51 37.324 1.51 2.314 0 3.622-1.309 1.409-1.408 1.409-3.722v-9.055H76.12q-10.563 0-15.392-4.728-4.729-4.83-4.729-15.393v-3.018q0-10.563 4.729-15.292 4.829-4.829 15.392-4.829h35.313v14.085H80.145q-6.037 0-6.037 6.036v2.012q0 6.037 6.037 6.037h18.109q9.859 0 14.487 4.627 4.628 4.628 4.628 14.488v5.03q0 9.86-4.628 14.487-4.628 4.628-14.487 4.628-5.131 0-10.866-.201l-9.255-.403q-10.262-.503-21.228-1.408zM147.542 239.903v51.309h-17.605v-37.727h-7.546v-13.582Zm-17.605-20.121h17.605v14.085h-17.605zM194.859 291.212q-9.76 1.006-19.116 1.006-6.84 0-10.966-4.125-4.124-4.125-4.124-10.966v-25.654h-6.037V237.89h6.037l2.012-12.073h15.594v12.073h12.575v13.582H178.26v23.139q0 1.51 1.006 2.515 1.006 1.006 2.515 1.006h13.079zM221.488 249.46q-4.025 0-4.025 4.025v5.533h17.103v-5.533q0-4.024-4.024-4.024zm28.672 40.746q-19.417 2.012-35.212 2.012-6.841 0-10.966-4.125-4.125-4.125-4.125-10.966v-24.145q0-7.546 4.226-11.771 4.326-4.326 11.871-4.326h20.121q7.546 0 11.771 4.326 4.326 4.225 4.326 11.77v18.613h-34.709v4.024q0 1.51 1.006 2.515 1.006 1.006 2.516 1.006 9.96 0 29.175-1.509zM280.303 277.127h36.72v14.085h-54.83v-70.424h18.11zM345.217 239.903v51.309H327.61v-37.727h-7.546v-13.582Zm-17.606-20.121h17.606v14.085H327.61zM384.987 251.473q-5.332 0-12.072 2.012v37.727h-17.606V237.89h15.594l1.006 5.03q4.728-3.118 9.658-4.527 5.03-1.51 8.45-1.51h4.528q6.841 0 10.966 4.126 4.125 4.125 4.125 10.966v39.236H392.03v-36.218q0-1.51-1.006-2.515-1.006-1.006-2.515-1.006zM456 291.212q-9.758 1.006-19.114 1.006-6.842 0-10.966-4.125-4.125-4.125-4.125-10.966v-25.654h-6.037V237.89h6.037l2.012-12.073H439.4v12.073h12.575v13.582h-12.575v23.139q0 1.51 1.006 2.515 1.006 1.006 2.515 1.006h13.079z" style="line-height:1.25;white-space:pre" font-size="40" font-family="russo one" fill="#fff"/>
</svg>
